<?xml version="1.0" encoding="UTF-8" standalone="no"?>
<!-- Created with Inkscape (http://www.inkscape.org/) -->

<svg
   width="152.73306mm"
   height="57.909538mm"
   viewBox="0 0 152.73305 57.909538"
   version="1.1"
   id="svg185"
   xml:space="preserve"
   sodipodi:docname="logo.svg"
   inkscape:version="1.2.2 (b0a84865, 2022-12-01)"
   xmlns:inkscape="http://www.inkscape.org/namespaces/inkscape"
   xmlns:sodipodi="http://sodipodi.sourceforge.net/DTD/sodipodi-0.dtd"
   xmlns="http://www.w3.org/2000/svg"
   xmlns:svg="http://www.w3.org/2000/svg"><sodipodi:namedview
     id="namedview187"
     pagecolor="#ffffff"
     bordercolor="#000000"
     borderopacity="0.25"
     inkscape:showpageshadow="2"
     inkscape:pageopacity="0.0"
     inkscape:pagecheckerboard="0"
     inkscape:deskcolor="#d1d1d1"
     inkscape:document-units="mm"
     showgrid="false"
     inkscape:zoom="1.2039781"
     inkscape:cx="301.5005"
     inkscape:cy="151.58083"
     inkscape:window-width="1710"
     inkscape:window-height="963"
     inkscape:window-x="0"
     inkscape:window-y="43"
     inkscape:window-maximized="1"
     inkscape:current-layer="layer1" /><defs
     id="defs182"><rect
       x="-91.619133"
       y="-152.15321"
       width="788.57898"
       height="574.25568"
       id="rect671" /><rect
       x="-85.074913"
       y="-47.445621"
       width="855.65729"
       height="381.20105"
       id="rect645" /><rect
       x="687.14349"
       y="266.67712"
       width="742.76941"
       height="359.93231"
       id="rect4646" /><rect
       x="-78.530685"
       y="-63.806183"
       width="1169.78"
       height="343.57175"
       id="rect529" /><style
       id="style601">.cls-1{fill:none;stroke:#000000;stroke-linejoin:round;stroke-width:2px;}</style><style
       id="style1408">.cls-1{fill:none;stroke:#000000;stroke-linejoin:round;stroke-width:2px;}</style></defs><g
     inkscape:label="Layer 1"
     inkscape:groupmode="layer"
     id="layer1"
     transform="translate(-51.560436,-98.798643)"><g
       aria-label="Nutri"
       id="text1307"
       style="font-size:22.5778px;font-family:'Hiragino Kaku Gothic StdN';-inkscape-font-specification:'Hiragino Kaku Gothic StdN';text-anchor:middle;fill:#ffffff;fill-opacity:1;stroke-width:0.352777;stop-color:#000000"
       transform="translate(-15.583433,0.43287314)"><path
         d="m 146.14085,98.36577 q 0.13546,2.37067 0.13546,5.01227 0,2.61903 -0.22577,6.27663 h -2.16747 q -4.3801,-2.34809 -8.0377,-6.38952 0.18062,1.51272 0.18062,3.11574 0,1.58045 -0.11289,3.27378 h -2.6416 q 0.45156,-2.77707 0.45156,-5.12516 0,-2.37067 -0.22578,-3.74791 -0.90311,-1.354673 -1.4224,-2.41583 h 6.41209 q 0.94827,1.625602 2.57387,3.36409 1.64818,1.71592 3.13832,2.68676 0,-3.29636 -0.74507,-6.05085 z"
         style="font-weight:bold;font-family:'Ruslan Display';-inkscape-font-specification:'Ruslan Display Bold';fill:#ffffff;fill-opacity:1;stroke-width:0.352778"
         id="path649" /><path
         d="m 162.55487,98.36577 q 0.0903,1.467557 0.0903,4.28978 0,2.79965 -0.36124,5.98312 -2.3481,1.51271 -5.62188,1.51271 -4.35751,0 -7.04427,-1.51271 -0.29351,-2.4384 -0.29351,-4.71876 0,-2.30294 0.33866,-5.55414 h 6.07343 q -0.90311,4.89938 -0.94826,9.41494 0.94826,0.85796 2.73191,0.85796 1.78365,0 2.73191,-0.63218 0.0452,-0.74507 0.0452,-2.14489 0,-3.56729 -0.63218,-7.49583 z"
         style="font-weight:bold;font-family:'Ruslan Display';-inkscape-font-specification:'Ruslan Display Bold';fill:#ffffff;fill-opacity:1;stroke-width:0.352778"
         id="path651" /><path
         d="m 174.1824,99.833327 q -0.58703,3.567293 -0.58703,5.825073 0,2.25778 0.18063,3.99627 h -4.92196 q -0.76765,-3.58987 -0.76765,-7.72161 0,-0.69991 0.0452,-2.099733 -1.91912,0.564443 -2.34809,2.596443 l -2.23521,-0.13546 0.8128,-3.92854 h 15.01424 q -0.45155,2.48356 -1.03858,4.064 l -2.28035,-0.13546 q 0.0903,-0.36125 0.0903,-0.72249 0,-0.88054 -0.54187,-1.30951 -0.54187,-0.428983 -1.4224,-0.428983 z"
         style="font-weight:bold;font-family:'Ruslan Display';-inkscape-font-specification:'Ruslan Display Bold';fill:#ffffff;fill-opacity:1;stroke-width:0.352778"
         id="path653" /><path
         d="m 193.48642,102.29431 -0.0226,0.76764 q -1.80623,0.97085 -4.51556,1.51272 1.94169,0.51928 3.74791,0.51928 h 0.47414 q 1.24178,1.82881 1.60302,4.56072 h -5.84765 q -0.22578,-1.58045 -0.92569,-2.70934 -0.67733,-1.15146 -1.67076,-1.55786 -0.0226,0.38382 -0.0226,1.53529 0,1.15146 0.13546,2.73191 h -4.92196 q -0.65475,-3.27378 -0.65475,-6.07343 0,-2.82222 0.31609,-5.21547 h 11.78561 q 0.51929,2.28036 0.51929,3.92854 z m -6.68303,-2.415827 q -0.27094,1.986847 -0.4064,3.905957 1.24178,-0.18062 2.032,-0.88053 -0.42898,-1.51271 -1.6256,-3.025427 z"
         style="font-weight:bold;font-family:'Ruslan Display';-inkscape-font-specification:'Ruslan Display Bold';fill:#ffffff;fill-opacity:1;stroke-width:0.352778"
         id="path655" /><path
         d="m 203.08197,98.36577 v 0.609601 q 0,5.960539 -0.74507,10.679299 h -5.41867 q 0.42897,-2.07716 0.42897,-4.78649 0,-2.73192 -0.36124,-6.50241 z"
         style="font-weight:bold;font-family:'Ruslan Display';-inkscape-font-specification:'Ruslan Display Bold';fill:#ffffff;fill-opacity:1;stroke-width:0.352778"
         id="path657" /></g><g
       aria-label="para"
       id="text1307-8"
       style="font-size:22.5778px;font-family:'Hiragino Kaku Gothic StdN';-inkscape-font-specification:'Hiragino Kaku Gothic StdN';text-anchor:middle;fill:#ffffff;fill-opacity:1;stroke-width:0.352777;stop-color:#000000"
       transform="translate(-15.583433,0.43287314)"><path
         d="m 142.51709,121.24109 q 0,1.28694 0.11289,2.82223 h -4.96711 q -0.92569,-3.58987 -0.92569,-7.6313 0,-2.05458 0.24835,-3.6576 h 12.23717 q 0.65476,2.55129 0.72249,6.07342 -3.34151,1.49014 -7.4281,1.9417 z m 0.0226,-2.00942 q 1.44498,-0.18063 2.41583,-0.72249 -0.36125,-2.39325 -1.94169,-4.24463 -0.36125,2.2352 -0.47414,4.96712 z"
         style="font-weight:bold;font-family:'Ruslan Display';-inkscape-font-specification:'Ruslan Display Bold';fill:#ffffff;fill-opacity:1;stroke-width:0.352778"
         id="path660" /><path
         d="m 166.47212,123.88269 v 0.18063 h -5.23805 q -0.0903,-1.28694 -0.38382,-2.66418 -1.39983,1.4224 -3.1609,2.66418 h -5.26062 q -0.15805,-0.92569 -0.15805,-2.43841 0,-1.53529 0.45156,-3.07058 1.6256,-0.47413 3.11573,-1.60302 1.51272,-1.12889 2.19005,-2.4384 -0.6096,-0.94827 -1.28693,-1.73849 h 7.49583 q 2.2352,4.85422 2.2352,11.10827 z m -6.02827,-4.13173 q -0.58703,-2.00943 -1.53529,-3.79307 -1.06116,3.11573 -1.21921,5.8928 1.62561,-0.83538 2.7545,-2.09973 z"
         style="font-weight:bold;font-family:'Ruslan Display';-inkscape-font-specification:'Ruslan Display Bold';fill:#ffffff;fill-opacity:1;stroke-width:0.352778"
         id="path662" /><path
         d="m 180.94448,116.70295 -0.0226,0.76765 q -1.80622,0.97084 -4.51556,1.51271 1.94169,0.51929 3.74792,0.51929 h 0.47413 q 1.24178,1.8288 1.60303,4.56072 h -5.84766 q -0.22577,-1.58045 -0.92569,-2.70934 -0.67733,-1.15147 -1.67075,-1.55787 -0.0226,0.38382 -0.0226,1.53529 0,1.15147 0.13547,2.73192 h -4.92196 q -0.65476,-3.27378 -0.65476,-6.07343 0,-2.82223 0.31609,-5.21547 h 11.78561 q 0.51929,2.28035 0.51929,3.92853 z m -6.68303,-2.41582 q -0.27093,1.98685 -0.4064,3.90596 1.24178,-0.18062 2.032,-0.88054 -0.42898,-1.51271 -1.6256,-3.02542 z"
         style="font-weight:bold;font-family:'Ruslan Display';-inkscape-font-specification:'Ruslan Display Bold';fill:#ffffff;fill-opacity:1;stroke-width:0.352778"
         id="path664" /><path
         d="m 198.41968,123.88269 v 0.18063 h -5.23805 q -0.0903,-1.28694 -0.38382,-2.66418 -1.39982,1.4224 -3.16089,2.66418 h -5.26063 q -0.15804,-0.92569 -0.15804,-2.43841 0,-1.53529 0.45155,-3.07058 1.6256,-0.47413 3.11574,-1.60302 1.51271,-1.12889 2.19005,-2.4384 -0.6096,-0.94827 -1.28694,-1.73849 h 7.49583 q 2.2352,4.85422 2.2352,11.10827 z m -6.02827,-4.13173 q -0.58702,-2.00943 -1.53529,-3.79307 -1.06116,3.11573 -1.2192,5.8928 1.6256,-0.83538 2.75449,-2.09973 z"
         style="font-weight:bold;font-family:'Ruslan Display';-inkscape-font-specification:'Ruslan Display Bold';fill:#ffffff;fill-opacity:1;stroke-width:0.352778"
         id="path666" /></g><g
       aria-label="todos"
       id="text1307-8-9"
       style="font-size:22.5778px;font-family:'Hiragino Kaku Gothic StdN';-inkscape-font-specification:'Hiragino Kaku Gothic StdN';text-anchor:middle;fill:#ffffff;fill-opacity:1;stroke-width:0.352777;stop-color:#000000"
       transform="translate(-15.583433,0.43287314)"><path
         d="m 140.1803,130.93952 q -0.58702,3.56729 -0.58702,5.82507 0,2.25778 0.18062,3.99627 h -4.92196 q -0.76764,-3.58987 -0.76764,-7.7216 0,-0.69992 0.0451,-2.09974 -1.91911,0.56445 -2.34809,2.59645 l -2.2352,-0.13547 0.8128,-3.92854 h 15.01424 q -0.45156,2.48356 -1.03858,4.06401 l -2.28036,-0.13547 q 0.0903,-0.36124 0.0903,-0.72249 0,-0.88053 -0.54186,-1.30951 -0.54187,-0.42898 -1.42241,-0.42898 z"
         style="font-weight:bold;font-family:'Ruslan Display';-inkscape-font-specification:'Ruslan Display Bold';fill:#ffffff;fill-opacity:1;stroke-width:0.352778"
         id="path669" /><path
         d="m 148.218,140.69313 q -2.00942,-2.57387 -2.00942,-5.2832 0,-2.70934 2.25778,-4.5833 2.25778,-1.87396 5.77991,-1.87396 1.87396,0 3.72534,0.56445 1.6256,2.05458 1.6256,4.40267 0,2.95769 -2.41582,5.14774 -2.41583,2.19005 -5.84765,2.19005 -1.46756,0 -3.11574,-0.56445 z m 3.43183,-9.77619 q -0.79023,1.35467 -0.79023,3.18347 0,1.8288 0.79023,3.38667 0.8128,1.53529 2.21262,2.21263 1.06116,-1.35467 1.06116,-3.13832 0,-1.78364 -0.88054,-3.31893 -0.85795,-1.53529 -2.39324,-2.32552 z"
         style="font-weight:bold;font-family:'Ruslan Display';-inkscape-font-specification:'Ruslan Display Bold';fill:#ffffff;fill-opacity:1;stroke-width:0.352778"
         id="path671" /><path
         d="m 167.40911,128.95267 q 4.35751,0 7.08943,1.08374 0.97084,1.94169 0.97084,3.92854 0,2.55129 -1.73849,4.42525 -2.52871,2.68675 -6.84107,2.68675 -1.49013,0 -4.04143,-0.33866 -0.88053,-4.53814 -0.88053,-8.37637 0,-1.33209 0.13547,-2.88996 3.63502,-0.51929 5.30578,-0.51929 z m 0.67733,1.69334 q -0.4064,4.24463 -0.4064,6.09601 0,1.8288 0.0677,2.98027 1.2192,-0.65476 1.89653,-2.19005 0.69991,-1.55787 0.69991,-3.13832 0,-1.60302 -0.58702,-2.61902 -0.56444,-1.016 -1.67076,-1.12889 z"
         style="font-weight:bold;font-family:'Ruslan Display';-inkscape-font-specification:'Ruslan Display Bold';fill:#ffffff;fill-opacity:1;stroke-width:0.352778"
         id="path673" /><path
         d="m 179.285,140.69313 q -2.00943,-2.57387 -2.00943,-5.2832 0,-2.70934 2.25778,-4.5833 2.25778,-1.87396 5.77992,-1.87396 1.87396,0 3.72534,0.56445 1.6256,2.05458 1.6256,4.40267 0,2.95769 -2.41583,5.14774 -2.41582,2.19005 -5.84765,2.19005 -1.46755,0 -3.11573,-0.56445 z m 3.43182,-9.77619 q -0.79022,1.35467 -0.79022,3.18347 0,1.8288 0.79022,3.38667 0.8128,1.53529 2.21263,2.21263 1.06115,-1.35467 1.06115,-3.13832 0,-1.78364 -0.88053,-3.31893 -0.85796,-1.53529 -2.39325,-2.32552 z"
         style="font-weight:bold;font-family:'Ruslan Display';-inkscape-font-specification:'Ruslan Display Bold';fill:#ffffff;fill-opacity:1;stroke-width:0.352778"
         id="path675" /><path
         d="m 200.91451,130.82663 q -0.90311,-0.13546 -1.94169,-0.13546 -1.016,0 -1.98685,0.13546 0.6096,1.03858 1.44498,1.69334 0.83538,0.65475 2.09974,1.30951 1.28693,0.63218 2.07716,1.17405 0.8128,0.54186 1.78364,1.78364 0.97085,1.24178 1.2192,2.59645 -1.08373,1.39982 -2.86738,2.46098 -1.78364,1.08373 -3.6576,1.44498 -1.26436,-0.11289 -3.20605,-0.72249 -1.91911,-0.58702 -2.88996,-0.58702 -0.97084,0 -1.94169,0.6096 0.4064,-1.15147 1.33209,-2.88996 h 0.18063 q 1.44497,0 2.70933,0.45155 1.28694,0.45156 2.32551,0.90312 1.06116,0.45155 1.69334,0.45155 0.65476,0 0.94827,-0.0903 0,-1.49013 -0.92569,-2.46098 -0.49671,-0.51929 -0.85796,-0.79022 -0.33867,-0.29351 -1.06116,-0.79023 l -0.38382,-0.27093 q -1.53529,-1.06116 -2.52871,-2.14489 -0.99343,-1.10631 -1.44498,-2.70934 0.72249,-1.60302 1.4224,-2.77707 2.14489,-0.51929 4.44783,-0.51929 h 0.99342 q 1.94169,0 4.44783,0.54187 -0.36125,1.49014 -0.88054,2.68676 -1.89653,0.13547 -2.93511,0.13547 0.2032,-0.51929 0.38382,-1.49014 z"
         style="font-weight:bold;font-family:'Ruslan Display';-inkscape-font-specification:'Ruslan Display Bold';fill:#ffffff;fill-opacity:1;stroke-width:0.352778"
         id="path677" /></g><text
       xml:space="preserve"
       transform="matrix(0.26458333,0,0,0.26458333,5.4993266,33.391223)"
       id="text527"
       style="font-size:37.3333px;line-height:normal;font-family:'Apple Braille';-inkscape-font-specification:'Apple Braille';text-decoration-color:#000000;white-space:pre;shape-inside:url(#rect529);display:inline;fill:#e3f4d7;stroke-width:1.33333;-inkscape-stroke:none;stop-color:#000000" /><text
       xml:space="preserve"
       transform="matrix(0.26458333,0,0,0.26458333,57.592651,95.292082)"
       id="text4644"
       style="font-style:normal;font-variant:normal;font-weight:normal;font-stretch:normal;font-size:25.3333px;line-height:normal;font-family:'Hiragino Kaku Gothic StdN';-inkscape-font-specification:'Hiragino Kaku Gothic StdN';text-decoration-color:#000000;white-space:pre;shape-inside:url(#rect4646);fill:#f8f1cf;fill-opacity:1;stroke-width:1.33333;-inkscape-stroke:none;stop-color:#000000" /><text
       xml:space="preserve"
       transform="matrix(0.26458333,0,0,0.26458333,58.248926,95.292082)"
       id="text643"
       style="font-size:25.3333px;line-height:normal;font-family:'Hiragino Kaku Gothic StdN';-inkscape-font-specification:'Hiragino Kaku Gothic StdN';text-decoration-color:#000000;white-space:pre;shape-inside:url(#rect645);fill:#ffffff;stroke-width:1.33333;-inkscape-stroke:none;stop-color:#000000" /><g
       aria-label="Alimentação Inteligente, Vida Saudável"
       id="text617"
       style="font-size:9.17222px;font-family:'Bodoni 72 Smallcaps';-inkscape-font-specification:'Bodoni 72 Smallcaps, ';text-anchor:middle;fill:#ffffff;stroke:#9a8a66;stroke-width:0.759;stroke-opacity:0;stop-color:#000000"><path
         d="m 53.288252,148.16541 h 0.963083 l 1.348317,5.96194 h -0.642056 l -0.311855,-1.37583 h -1.751894 l -0.311856,1.37583 h -0.642055 z m 0.476956,0.71543 -0.752123,3.32034 h 1.504245 z"
         style="font-family:'Unica One';-inkscape-font-specification:'Unica One';fill:#ffffff"
         id="path1781" /><path
         d="m 56.883746,154.12735 v -5.96194 h 0.642055 v 5.41161 h 1.678517 v 0.55033 z"
         style="font-family:'Unica One';-inkscape-font-specification:'Unica One';fill:#ffffff"
         id="path1783" /><path
         d="m 60.947032,154.12735 h -0.642055 v -5.96194 h 0.642055 z"
         style="font-family:'Unica One';-inkscape-font-specification:'Unica One';fill:#ffffff"
         id="path1785" /><path
         d="m 63.423518,154.12735 h -0.642055 v -5.96194 h 0.275166 l 0.229306,0.58702 q 0.192617,-0.3302 0.504472,-0.52282 0.311856,-0.20179 0.678744,-0.20179 0.926395,0 1.183217,0.66958 0.440266,-0.66958 1.1557,-0.66958 1.293283,0 1.293283,1.28411 v 4.81542 h -0.642056 v -4.81542 q 0,-0.73377 -0.6604,-0.73377 -0.385233,0 -0.715433,0.31185 -0.321028,0.31186 -0.321028,0.60537 v 4.63197 h -0.642055 v -4.81542 q 0,-0.73377 -0.6604,-0.73377 -0.385233,0 -0.715433,0.30268 -0.321028,0.29351 -0.321028,0.58702 z"
         style="font-family:'Unica One';-inkscape-font-specification:'Unica One';fill:#ffffff"
         id="path1787" /><path
         d="m 72.091253,152.98082 v -0.50447 h 0.642056 v 0.50447 q 0,0.61454 -0.376061,0.95391 -0.376061,0.3302 -1.128184,0.3302 -0.752122,0 -1.137355,-0.3302 -0.385233,-0.33937 -0.385233,-0.95391 v -3.66889 q 0,-0.61453 0.376061,-0.94473 0.376061,-0.33938 1.128183,-0.33938 0.752122,0 1.137355,0.33938 0.385234,0.3302 0.385234,0.94473 v 2.01789 h -2.384778 v 1.651 q 0,0.73378 0.871361,0.73378 0.871361,0 0.871361,-0.73378 z m -1.742722,-3.66889 v 1.46756 h 1.742722 v -1.46756 q 0,-0.73377 -0.871361,-0.73377 -0.871361,0 -0.871361,0.73377 z"
         style="font-family:'Unica One';-inkscape-font-specification:'Unica One';fill:#ffffff"
         id="path1789" /><path
         d="m 75.072207,154.12735 h -0.642056 v -5.96194 h 0.275167 l 0.229305,0.59619 q 0.440267,-0.73378 1.219906,-0.73378 1.348316,0 1.348316,1.28411 v 4.81542 H 76.86079 v -4.81542 q 0,-0.34854 -0.155928,-0.54116 -0.146756,-0.19261 -0.550333,-0.19261 -0.403578,0 -0.74295,0.31185 -0.339372,0.31186 -0.339372,0.60537 z"
         style="font-family:'Unica One';-inkscape-font-specification:'Unica One';fill:#ffffff"
         id="path1791" /><path
         d="m 79.10798,148.16541 h 2.017889 v 0.55033 h -1.375833 v 4.39349 q 0,0.25683 0.128411,0.4311 0.137583,0.17427 0.376061,0.17427 0.24765,0 0.376061,-0.1651 0.128411,-0.17427 0.128411,-0.44027 v -1.09149 h 0.642055 v 1.0548 q 0,0.57785 -0.311855,0.88971 -0.302683,0.30268 -0.8255,0.30268 -0.522816,0 -0.843844,-0.30268 -0.311856,-0.31186 -0.311856,-0.88971 z"
         style="font-family:'Unica One';-inkscape-font-specification:'Unica One';fill:#ffffff"
         id="path1793" /><path
         d="m 85.528518,154.12735 h -0.275167 l -0.238478,-0.58702 q -0.192616,0.3302 -0.504472,0.53199 -0.311855,0.19261 -0.687916,0.19261 -1.3208,0 -1.3208,-1.28411 v -0.91722 q 0,-1.28411 1.3208,-1.28411 h 1.063977 v -1.50424 q 0,-0.3302 -0.210961,-0.51365 -0.210961,-0.18344 -0.623711,-0.18344 -0.816327,0 -0.816327,0.69709 v 0.54116 h -0.642056 v -0.50448 q 0,-0.61453 0.357717,-0.94473 0.366889,-0.33938 1.100666,-0.33938 0.733778,0 1.100667,0.33938 0.376061,0.3302 0.376061,0.94473 z m -0.642056,-2.79753 h -1.063977 q -0.385234,0 -0.531989,0.19262 -0.146756,0.19262 -0.146756,0.54116 v 0.91722 q 0,0.34855 0.146756,0.54116 0.146755,0.19262 0.531989,0.19262 0.385233,0 0.715433,-0.29351 0.3302,-0.30268 0.348544,-0.5962 z"
         style="font-family:'Unica One';-inkscape-font-specification:'Unica One';fill:#ffffff"
         id="path1795" /><path
         d="m 89.518415,152.98082 v -0.50447 h 0.642056 v 0.50447 q 0,1.21991 -1.385006,1.27494 l -0.08255,0.44027 h 0.04586 q 0.376061,0 0.568677,0.19261 0.201789,0.20179 0.201789,0.53199 v 0.21096 q 0,0.69709 -0.8255,0.69709 -0.816327,0 -0.816327,-0.69709 v -0.0734 h 0.440266 v 0.0917 q 0,0.28434 0.376061,0.28434 0.385234,0 0.385234,-0.28434 v -0.22931 q 0,-0.12841 -0.09172,-0.2293 -0.09172,-0.1009 -0.238477,-0.1009 h -0.550334 l 0.1651,-0.84384 q -0.605366,-0.0642 -0.917222,-0.38523 -0.302683,-0.3302 -0.302683,-0.88054 v -3.66889 q 0,-0.61453 0.376061,-0.94473 0.376061,-0.33938 1.128183,-0.33938 0.752122,0 1.137355,0.33938 0.385234,0.3302 0.385234,0.94473 v 0.87137 h -0.642056 v -0.87137 q 0,-0.73377 -0.871361,-0.73377 -0.871361,0 -0.871361,0.73377 v 3.66889 q 0,0.73378 0.871361,0.73378 0.871361,0 0.871361,-0.73378 z"
         style="font-family:'Unica One';-inkscape-font-specification:'Unica One';fill:#ffffff"
         id="path1797" /><path
         d="m 94.608994,154.12735 h -0.275166 l -0.238478,-0.58702 q -0.192617,0.3302 -0.504472,0.53199 -0.311856,0.19261 -0.687917,0.19261 -1.320799,0 -1.320799,-1.28411 v -0.91722 q 0,-1.28411 1.320799,-1.28411 h 1.063978 v -1.50424 q 0,-0.3302 -0.210961,-0.51365 -0.210961,-0.18344 -0.623711,-0.18344 -0.816328,0 -0.816328,0.69709 v 0.54116 h -0.642055 v -0.50448 q 0,-0.61453 0.357717,-0.94473 0.366888,-0.33938 1.100666,-0.33938 0.733778,0 1.100666,0.33938 0.376061,0.3302 0.376061,0.94473 z m -0.642055,-2.79753 h -1.063978 q -0.385233,0 -0.531988,0.19262 -0.146756,0.19262 -0.146756,0.54116 v 0.91722 q 0,0.34855 0.146756,0.54116 0.146755,0.19262 0.531988,0.19262 0.385234,0 0.715434,-0.29351 0.3302,-0.30268 0.348544,-0.5962 z m -0.431094,-4.16419 q -0.137584,0 -0.394406,0.17428 -0.256822,0.17427 -0.4953,0.17427 -0.229305,0 -0.394405,-0.18345 -0.1651,-0.18344 -0.192617,-0.4953 l 0.376061,-0.12841 q 0.09172,0.25683 0.311856,0.25683 0.137583,0 0.394405,-0.17428 0.256822,-0.17427 0.486128,-0.17427 0.238478,0 0.403578,0.18345 0.165099,0.18344 0.192616,0.4953 l -0.376061,0.12841 q -0.09172,-0.25683 -0.311855,-0.25683 z"
         style="font-family:'Unica One';-inkscape-font-specification:'Unica One';fill:#ffffff"
         id="path1799" /><path
         d="m 99.332672,149.31193 v 3.66889 q 0,0.61454 -0.394406,0.95391 -0.385233,0.3302 -1.164872,0.3302 -0.770466,0 -1.164872,-0.3302 -0.394405,-0.33937 -0.394405,-0.95391 v -3.66889 q 0,-0.61453 0.385233,-0.94473 0.394405,-0.33938 1.164872,-0.33938 0.779639,0 1.174044,0.33938 0.394406,0.3302 0.394406,0.94473 z m -0.642056,3.66889 v -3.66889 q 0,-0.73377 -0.917222,-0.73377 -0.917222,0 -0.917222,0.73377 v 3.66889 q 0,0.73378 0.917222,0.73378 0.917222,0 0.917222,-0.73378 z"
         style="font-family:'Unica One';-inkscape-font-specification:'Unica One';fill:#ffffff"
         id="path1801" /><path
         d="m 104.42323,153.57702 v 0.55033 h -1.55927 v -0.55033 h 0.45861 v -4.86128 h -0.45861 v -0.55033 h 1.55927 v 0.55033 h -0.45861 v 4.86128 z"
         style="font-family:'Unica One';-inkscape-font-specification:'Unica One';fill:#ffffff"
         id="path1803" /><path
         d="m 106.62456,154.12735 h -0.64205 v -5.96194 h 0.27516 l 0.22931,0.59619 q 0.44026,-0.73378 1.2199,-0.73378 1.34832,0 1.34832,1.28411 v 4.81542 h -0.64206 v -4.81542 q 0,-0.34854 -0.15592,-0.54116 -0.14676,-0.19261 -0.55034,-0.19261 -0.40357,0 -0.74295,0.31185 -0.33937,0.31186 -0.33937,0.60537 z"
         style="font-family:'Unica One';-inkscape-font-specification:'Unica One';fill:#ffffff"
         id="path1805" /><path
         d="m 110.66033,148.16541 h 2.01789 v 0.55033 h -1.37583 v 4.39349 q 0,0.25683 0.12841,0.4311 0.13758,0.17427 0.37606,0.17427 0.24765,0 0.37606,-0.1651 0.12841,-0.17427 0.12841,-0.44027 v -1.09149 h 0.64206 v 1.0548 q 0,0.57785 -0.31186,0.88971 -0.30268,0.30268 -0.8255,0.30268 -0.52281,0 -0.84384,-0.30268 -0.31186,-0.31186 -0.31186,-0.88971 z"
         style="font-family:'Unica One';-inkscape-font-specification:'Unica One';fill:#ffffff"
         id="path1807" /><path
         d="m 116.48468,152.98082 v -0.50447 h 0.64205 v 0.50447 q 0,0.61454 -0.37606,0.95391 -0.37606,0.3302 -1.12818,0.3302 -0.75212,0 -1.13736,-0.3302 -0.38523,-0.33937 -0.38523,-0.95391 v -3.66889 q 0,-0.61453 0.37606,-0.94473 0.37606,-0.33938 1.12818,-0.33938 0.75213,0 1.13736,0.33938 0.38523,0.3302 0.38523,0.94473 v 2.01789 h -2.38477 v 1.651 q 0,0.73378 0.87136,0.73378 0.87136,0 0.87136,-0.73378 z m -1.74272,-3.66889 v 1.46756 h 1.74272 v -1.46756 q 0,-0.73377 -0.87136,-0.73377 -0.87136,0 -0.87136,0.73377 z"
         style="font-family:'Unica One';-inkscape-font-specification:'Unica One';fill:#ffffff"
         id="path1809" /><path
         d="m 118.82357,154.12735 v -5.96194 h 0.64206 v 5.41161 h 1.67852 v 0.55033 z"
         style="font-family:'Unica One';-inkscape-font-specification:'Unica One';fill:#ffffff"
         id="path1811" /><path
         d="m 122.88686,154.12735 h -0.64205 v -5.96194 h 0.64205 z"
         style="font-family:'Unica One';-inkscape-font-specification:'Unica One';fill:#ffffff"
         id="path1813" /><path
         d="m 125.9412,151.65085 v -0.55033 h 1.66934 v 1.8803 q 0,0.61454 -0.37606,0.95391 -0.37606,0.3302 -1.12818,0.3302 -0.75212,0 -1.13736,-0.3302 -0.38523,-0.33937 -0.38523,-0.95391 v -3.66889 q 0,-0.61453 0.37606,-0.94473 0.37606,-0.33938 1.12819,-0.33938 0.75212,0 1.13735,0.33938 0.38523,0.3302 0.38523,0.94473 v 0.50448 h -0.64205 v -0.50448 q 0,-0.73377 -0.87136,-0.73377 -0.87136,0 -0.87136,0.73377 v 3.66889 q 0,0.73378 0.87136,0.73378 0.87136,0 0.87136,-0.73378 v -1.32997 z"
         style="font-family:'Unica One';-inkscape-font-specification:'Unica One';fill:#ffffff"
         id="path1815" /><path
         d="m 131.55458,152.98082 v -0.50447 h 0.64205 v 0.50447 q 0,0.61454 -0.37606,0.95391 -0.37606,0.3302 -1.12818,0.3302 -0.75212,0 -1.13736,-0.3302 -0.38523,-0.33937 -0.38523,-0.95391 v -3.66889 q 0,-0.61453 0.37606,-0.94473 0.37606,-0.33938 1.12819,-0.33938 0.75212,0 1.13735,0.33938 0.38523,0.3302 0.38523,0.94473 v 2.01789 h -2.38477 v 1.651 q 0,0.73378 0.87136,0.73378 0.87136,0 0.87136,-0.73378 z m -1.74272,-3.66889 v 1.46756 h 1.74272 v -1.46756 q 0,-0.73377 -0.87136,-0.73377 -0.87136,0 -0.87136,0.73377 z"
         style="font-family:'Unica One';-inkscape-font-specification:'Unica One';fill:#ffffff"
         id="path1817" /><path
         d="m 134.53553,154.12735 h -0.64206 v -5.96194 h 0.27517 l 0.22931,0.59619 q 0.44026,-0.73378 1.2199,-0.73378 1.34832,0 1.34832,1.28411 v 4.81542 h -0.64206 v -4.81542 q 0,-0.34854 -0.15592,-0.54116 -0.14676,-0.19261 -0.55034,-0.19261 -0.40358,0 -0.74295,0.31185 -0.33937,0.31186 -0.33937,0.60537 z"
         style="font-family:'Unica One';-inkscape-font-specification:'Unica One';fill:#ffffff"
         id="path1819" /><path
         d="m 138.57131,148.16541 h 2.01788 v 0.55033 h -1.37583 v 4.39349 q 0,0.25683 0.12841,0.4311 0.13759,0.17427 0.37606,0.17427 0.24765,0 0.37606,-0.1651 0.12842,-0.17427 0.12842,-0.44027 v -1.09149 h 0.64205 v 1.0548 q 0,0.57785 -0.31185,0.88971 -0.30269,0.30268 -0.8255,0.30268 -0.52282,0 -0.84385,-0.30268 -0.31185,-0.31186 -0.31185,-0.88971 z"
         style="font-family:'Unica One';-inkscape-font-specification:'Unica One';fill:#ffffff"
         id="path1821" /><path
         d="m 144.39565,152.98082 v -0.50447 h 0.64206 v 0.50447 q 0,0.61454 -0.37606,0.95391 -0.37607,0.3302 -1.12819,0.3302 -0.75212,0 -1.13735,-0.3302 -0.38524,-0.33937 -0.38524,-0.95391 v -3.66889 q 0,-0.61453 0.37606,-0.94473 0.37607,-0.33938 1.12819,-0.33938 0.75212,0 1.13735,0.33938 0.38524,0.3302 0.38524,0.94473 v 2.01789 h -2.38478 v 1.651 q 0,0.73378 0.87136,0.73378 0.87136,0 0.87136,-0.73378 z m -1.74272,-3.66889 v 1.46756 h 1.74272 v -1.46756 q 0,-0.73377 -0.87136,-0.73377 -0.87136,0 -0.87136,0.73377 z"
         style="font-family:'Unica One';-inkscape-font-specification:'Unica One';fill:#ffffff"
         id="path1823" /><path
         d="m 146.59696,153.11841 h 0.8255 v 0.87136 l -0.44944,1.1557 -0.29351,-0.055 0.13759,-0.96308 -0.22014,-0.0825 z"
         style="font-family:'Unica One';-inkscape-font-specification:'Unica One';fill:#ffffff"
         id="path1825" /><path
         d="m 152.98998,154.12735 h -0.96308 l -1.34832,-5.96194 h 0.64206 l 1.18321,5.25568 1.19239,-5.25568 h 0.64206 z"
         style="font-family:'Unica One';-inkscape-font-specification:'Unica One';fill:#ffffff"
         id="path1827" /><path
         d="m 156.26445,154.12735 h -0.64206 v -5.96194 h 0.64206 z"
         style="font-family:'Unica One';-inkscape-font-specification:'Unica One';fill:#ffffff"
         id="path1829" /><path
         d="m 159.57561,154.12735 h -1.47673 v -5.96194 h 1.47673 q 0.71543,0 1.08232,0.33937 0.37606,0.33937 0.37606,0.94474 v 3.39372 q 0,0.61454 -0.36689,0.95391 -0.36689,0.3302 -1.09149,0.3302 z m 0.81633,-1.28411 v -3.39372 q 0,-0.34855 -0.21097,-0.54116 -0.21096,-0.19262 -0.60536,-0.19262 h -0.83467 v 4.86128 h 0.83467 q 0.81633,0 0.81633,-0.73378 z"
         style="font-family:'Unica One';-inkscape-font-specification:'Unica One';fill:#ffffff"
         id="path1831" /><path
         d="m 165.57423,154.12735 h -0.27517 l -0.23848,-0.58702 q -0.19261,0.3302 -0.50447,0.53199 -0.31185,0.19261 -0.68792,0.19261 -1.3208,0 -1.3208,-1.28411 v -0.91722 q 0,-1.28411 1.3208,-1.28411 h 1.06398 v -1.50424 q 0,-0.3302 -0.21096,-0.51365 -0.21096,-0.18344 -0.62371,-0.18344 -0.81633,0 -0.81633,0.69709 v 0.54116 h -0.64205 v -0.50448 q 0,-0.61453 0.35771,-0.94473 0.36689,-0.33938 1.10067,-0.33938 0.73378,0 1.10067,0.33938 0.37606,0.3302 0.37606,0.94473 z m -0.64206,-2.79753 h -1.06398 q -0.38523,0 -0.53198,0.19262 -0.14676,0.19262 -0.14676,0.54116 v 0.91722 q 0,0.34855 0.14676,0.54116 0.14675,0.19262 0.53198,0.19262 0.38524,0 0.71544,-0.29351 0.3302,-0.30268 0.34854,-0.5962 z"
         style="font-family:'Unica One';-inkscape-font-specification:'Unica One';fill:#ffffff"
         id="path1833" /><path
         d="m 172.34331,152.98082 q 0,1.28411 -1.55011,1.28411 -1.5501,0 -1.5501,-1.28411 v -0.77964 h 0.64205 v 0.81633 q 0,0.3302 0.22931,0.51365 0.2293,0.18344 0.67874,0.18344 0.44944,0 0.67875,-0.18344 0.2293,-0.18345 0.2293,-0.4953 0,-0.32103 -0.0734,-0.50448 -0.0642,-0.19261 -0.27516,-0.40357 l -1.61431,-1.57763 q -0.28434,-0.28433 -0.39441,-0.55033 -0.10089,-0.27517 -0.10089,-0.68792 0,-0.61453 0.37606,-0.94473 0.38523,-0.33938 1.1557,-0.33938 1.47672,0 1.47672,1.28411 v 0.77964 h -0.64205 v -0.81632 q 0,-0.3302 -0.22013,-0.51365 -0.21097,-0.18344 -0.64206,-0.18344 -0.43109,0 -0.65123,0.18344 -0.21096,0.18345 -0.21096,0.50447 0,0.32103 0.0642,0.50448 0.0642,0.18344 0.28434,0.38523 l 1.64182,1.57762 q 0.266,0.29351 0.36689,0.56868 0.1009,0.26599 0.1009,0.67874 z"
         style="font-family:'Unica One';-inkscape-font-specification:'Unica One';fill:#ffffff"
         id="path1835" /><path
         d="m 176.83769,154.12735 h -0.27517 l -0.23848,-0.58702 q -0.19262,0.3302 -0.50447,0.53199 -0.31186,0.19261 -0.68792,0.19261 -1.3208,0 -1.3208,-1.28411 v -0.91722 q 0,-1.28411 1.3208,-1.28411 h 1.06398 v -1.50424 q 0,-0.3302 -0.21096,-0.51365 -0.21096,-0.18344 -0.62371,-0.18344 -0.81633,0 -0.81633,0.69709 v 0.54116 h -0.64205 v -0.50448 q 0,-0.61453 0.35771,-0.94473 0.36689,-0.33938 1.10067,-0.33938 0.73378,0 1.10066,0.33938 0.37607,0.3302 0.37607,0.94473 z m -0.64206,-2.79753 h -1.06398 q -0.38523,0 -0.53199,0.19262 -0.14675,0.19262 -0.14675,0.54116 v 0.91722 q 0,0.34855 0.14675,0.54116 0.14676,0.19262 0.53199,0.19262 0.38524,0 0.71544,-0.29351 0.3302,-0.30268 0.34854,-0.5962 z"
         style="font-family:'Unica One';-inkscape-font-specification:'Unica One';fill:#ffffff"
         id="path1837" /><path
         d="m 178.48867,152.98082 v -4.81541 h 0.64206 v 4.81541 q 0,0.34855 0.14675,0.54116 0.15593,0.19262 0.55951,0.19262 0.40358,0 0.74295,-0.31186 0.33937,-0.31185 0.33937,-0.60536 v -4.63197 h 0.64206 v 5.96194 h -0.27517 l -0.23848,-0.58702 q -0.20179,0.3302 -0.52281,0.53199 -0.31186,0.19261 -0.68792,0.19261 -1.34832,0 -1.34832,-1.28411 z"
         style="font-family:'Unica One';-inkscape-font-specification:'Unica One';fill:#ffffff"
         id="path1839" /><path
         d="m 184.87253,154.12735 h -1.47673 v -5.96194 h 1.47673 q 0.71543,0 1.08232,0.33937 0.37606,0.33937 0.37606,0.94474 v 3.39372 q 0,0.61454 -0.36689,0.95391 -0.36689,0.3302 -1.09149,0.3302 z m 0.81633,-1.28411 v -3.39372 q 0,-0.34855 -0.21096,-0.54116 -0.21097,-0.19262 -0.60537,-0.19262 h -0.83467 v 4.86128 h 0.83467 q 0.81633,0 0.81633,-0.73378 z"
         style="font-family:'Unica One';-inkscape-font-specification:'Unica One';fill:#ffffff"
         id="path1841" /><path
         d="M 190.87116,154.12735 H 190.596 l -0.23848,-0.58702 q -0.19262,0.3302 -0.50447,0.53199 -0.31186,0.19261 -0.68792,0.19261 -1.3208,0 -1.3208,-1.28411 v -0.91722 q 0,-1.28411 1.3208,-1.28411 h 1.06398 v -1.50424 q 0,-0.3302 -0.21096,-0.51365 -0.21096,-0.18344 -0.62371,-0.18344 -0.81633,0 -0.81633,0.69709 v 0.54116 h -0.64206 v -0.50448 q 0,-0.61453 0.35772,-0.94473 0.36689,-0.33938 1.10067,-0.33938 0.73377,0 1.10066,0.33938 0.37606,0.3302 0.37606,0.94473 z m -0.64205,-2.79753 h -1.06398 q -0.38523,0 -0.53199,0.19262 -0.14675,0.19262 -0.14675,0.54116 v 0.91722 q 0,0.34855 0.14675,0.54116 0.14676,0.19262 0.53199,0.19262 0.38523,0 0.71543,-0.29351 0.3302,-0.30268 0.34855,-0.5962 z m 0.26599,-4.47604 -0.34854,0.34854 -1.03646,0.52282 -0.23848,-0.23848 1.12818,-1.12818 z"
         style="font-family:'Unica One';-inkscape-font-specification:'Unica One';fill:#ffffff"
         id="path1843" /><path
         d="m 194.37493,154.12735 h -0.96308 l -1.34832,-5.96194 h 0.64206 l 1.18321,5.25568 1.19239,-5.25568 h 0.64206 z"
         style="font-family:'Unica One';-inkscape-font-specification:'Unica One';fill:#ffffff"
         id="path1845" /><path
         d="m 199.25454,152.98082 v -0.50447 h 0.64205 v 0.50447 q 0,0.61454 -0.37606,0.95391 -0.37606,0.3302 -1.12818,0.3302 -0.75212,0 -1.13736,-0.3302 -0.38523,-0.33937 -0.38523,-0.95391 v -3.66889 q 0,-0.61453 0.37606,-0.94473 0.37606,-0.33938 1.12818,-0.33938 0.75213,0 1.13736,0.33938 0.38523,0.3302 0.38523,0.94473 v 2.01789 h -2.38477 v 1.651 q 0,0.73378 0.87136,0.73378 0.87136,0 0.87136,-0.73378 z m -1.74272,-3.66889 v 1.46756 h 1.74272 v -1.46756 q 0,-0.73377 -0.87136,-0.73377 -0.87136,0 -0.87136,0.73377 z"
         style="font-family:'Unica One';-inkscape-font-specification:'Unica One';fill:#ffffff"
         id="path1847" /><path
         d="m 201.59343,154.12735 v -5.96194 h 0.64206 v 5.41161 h 1.67852 v 0.55033 z"
         style="font-family:'Unica One';-inkscape-font-specification:'Unica One';fill:#ffffff"
         id="path1849" /></g><text
       xml:space="preserve"
       transform="matrix(0.26458333,0,0,0.26458333,58.083226,95.292103)"
       id="text669"
       style="font-style:normal;font-variant:normal;font-weight:normal;font-stretch:normal;font-size:37.3333px;line-height:normal;font-family:'Bodoni 72 Smallcaps';-inkscape-font-specification:'Bodoni 72 Smallcaps, ';text-decoration-color:#000000;white-space:pre;shape-inside:url(#rect671);fill:#808000;stroke:#9a8a66;stroke-width:2.86866;stroke-opacity:0;stop-color:#000000" /><g
       id="g711"
       transform="matrix(0.09382933,0,0,0.08955652,63.192033,98.890109)">
	<g
   id="g707">
		<path
   style="fill:#ffffff;fill-opacity:1"
   d="m 512,255.964 c 0,141.117 -114.846,255.964 -256.037,255.964 -46.452,0 -90.116,-12.475 -127.688,-34.197 C 89.308,455.202 56.726,422.62 34.197,383.653 12.475,346.079 0,302.416 0,255.964 0,114.773 114.845,0 255.963,0 315.111,0 369.636,20.107 413.005,53.864 429.81,67 445,82.117 458.063,98.922 491.893,142.292 512,196.816 512,255.964 Z"
   id="path675-9" />
		<path
   style="fill:#f8dab2"
   d="m 255.993,472.906 c -119.622,0 -216.945,-97.327 -216.945,-216.956 0,-119.629 97.323,-216.956 216.945,-216.956 119.636,0 216.956,97.327 216.956,216.956 -0.001,119.629 -97.32,216.956 -216.956,216.956 z"
   id="path677-3" />
		<path
   style="fill:#ffffff"
   d="m 457.197,255.95 c 0,111.115 -90.075,201.193 -201.204,201.193 -111.109,0 -201.183,-90.078 -201.183,-201.193 0,-111.115 90.074,-201.194 201.183,-201.194 111.129,0 201.204,90.078 201.204,201.194 z"
   id="path679" />
		<g
   id="g705">
			<g
   id="g685">
				<path
   style="fill:#ee9f8f;fill-opacity:1"
   d="m 151.492,369.409 c -3.776,3.776 -5.661,9.04 -5.145,14.357 0.509,5.314 3.504,9.03 7.804,13.104 0,0 13.867,14.533 34.005,22.875 20.138,8.342 40.218,7.865 40.218,7.865 5.561,0.011 10.663,-0.344 14.784,-3.74 4.128,-3.397 6.514,-8.453 6.514,-13.796 l -0.007,-128.053 c 0,-1.81 -1.082,-3.437 -2.752,-4.128 -1.67,-0.688 -3.591,-0.308 -4.866,0.967 z"
   id="path681" />
				<path
   style="fill:#ee9f8f;fill-opacity:1"
   d="m 360.508,142.488 c 3.776,-3.776 5.661,-9.036 5.16,-14.354 -0.523,-5.314 -3.511,-9.03 -7.819,-13.104 0,0 -13.859,-14.537 -33.997,-22.875 -20.137,-8.345 -40.225,-7.864 -40.225,-7.864 -5.561,-0.011 -10.663,0.343 -14.785,3.74 -4.121,3.397 -6.507,8.453 -6.507,13.795 v 128.053 c 0,1.806 1.09,3.437 2.759,4.128 1.663,0.688 3.583,0.308 4.866,-0.967 z"
   id="path683" />
			</g>
			<g
   id="g691">
				<path
   style="fill:#ee9f8f;fill-opacity:1"
   d="m 101.875,262.281 c -5.346,0 -10.398,2.383 -13.792,6.508 -3.401,4.124 -3.905,8.865 -3.748,14.795 0,0 -0.48,20.076 7.862,40.215 8.345,20.134 22.889,33.997 22.889,33.997 3.924,3.938 7.776,7.295 13.097,7.811 5.31,0.516 10.581,-1.372 14.35,-5.149 l 90.562,-90.552 c 1.276,-1.279 1.656,-3.196 0.961,-4.87 -0.688,-1.666 -2.314,-2.756 -4.128,-2.756 H 101.875 Z"
   id="path687" />
				<path
   style="fill:#ee9f8f;fill-opacity:1"
   d="m 410.128,249.619 c 5.339,0 10.405,-2.39 13.788,-6.508 3.397,-4.132 3.913,-8.865 3.748,-14.795 0,0 0.48,-20.076 -7.862,-40.214 -8.349,-20.137 -22.882,-33.994 -22.882,-33.994 -3.92,-3.941 -7.783,-7.303 -13.108,-7.815 -5.31,-0.516 -10.578,1.372 -14.361,5.149 l -90.541,90.551 c -1.275,1.272 -1.663,3.196 -0.967,4.87 0.688,1.666 2.329,2.756 4.128,2.756 z"
   id="path689" />
			</g>
			<g
   id="g697">
				<path
   style="fill:#ee9f8f;fill-opacity:1"
   d="m 142.534,151.442 c -3.769,-3.78 -9.04,-5.665 -14.35,-5.149 -5.321,0.512 -9.026,3.508 -13.097,7.811 0,0 -14.544,13.86 -22.889,33.995 -8.342,20.141 -7.862,40.217 -7.862,40.217 0,5.565 0.347,10.663 3.748,14.795 3.393,4.118 8.446,6.508 13.792,6.508 h 128.053 c 1.813,0 3.44,-1.09 4.128,-2.759 0.695,-1.67 0.316,-3.594 -0.967,-4.866 z"
   id="path693" />
				<path
   style="fill:#ee9f8f;fill-opacity:1"
   d="m 369.451,360.458 c 3.784,3.773 9.051,5.664 14.361,5.149 5.325,-0.516 9.037,-3.508 13.108,-7.815 0,0 14.533,-13.86 22.882,-33.997 8.342,-20.134 7.862,-40.211 7.862,-40.211 0.007,-5.565 -0.351,-10.671 -3.748,-14.795 -3.383,-4.125 -8.449,-6.511 -13.788,-6.511 l -128.057,0.004 c -1.799,0 -3.433,1.09 -4.128,2.756 -0.696,1.67 -0.316,3.591 0.967,4.87 z"
   id="path695" />
			</g>
			<g
   id="g703">
				<path
   style="fill:#ee9f8f;fill-opacity:1"
   d="m 249.665,101.822 c 0.007,-5.339 -2.38,-10.395 -6.507,-13.796 -4.121,-3.397 -8.85,-3.902 -14.784,-3.74 0,0 -20.08,-0.481 -40.218,7.858 -20.137,8.345 -34.005,22.886 -34.005,22.886 -3.934,3.924 -7.295,7.783 -7.804,13.101 -0.517,5.321 1.369,10.581 5.145,14.358 l 90.555,90.544 c 1.275,1.283 3.196,1.659 4.866,0.971 1.669,-0.688 2.752,-2.322 2.752,-4.124 z"
   id="path699" />
				<path
   style="fill:#ee9f8f;fill-opacity:1"
   d="m 262.335,410.074 c 0,5.342 2.386,10.399 6.507,13.796 4.121,3.393 8.865,3.906 14.785,3.74 0,0 20.088,0.477 40.225,-7.865 20.138,-8.342 33.997,-22.875 33.997,-22.875 3.942,-3.931 7.296,-7.79 7.819,-13.108 0.501,-5.314 -1.383,-10.578 -5.16,-14.354 L 269.96,278.856 c -1.283,-1.272 -3.203,-1.659 -4.866,-0.967 -1.669,0.691 -2.759,2.318 -2.759,4.128 z"
   id="path701" />
			</g>
		</g>
	</g>
	
</g><path
       style="fill:#e5ac6e;stroke:#9a8a66;stroke-width:2.38265;stroke-opacity:0;stop-color:#000000"
       d=""
       id="path1442"
       transform="matrix(0.26458333,0,0,0.26458333,58.592654,97.302622)" /></g></svg>
